#!OML:ASF G:\JayActor3\Patient Classification 1\Patient 1\Session 5\male.ASF
:FULLY-SPECIFIED
:DEGREES
497
root 15.8131 16.8511 -5.83042 75.1612 -87.2589 -78.1312
lowerback -0.676089 -1.79469 3.42684
upperback 1.28061 -2.45931 0.328365
thorax 1.56385 -1.19218 -1.6284
lowerneck -5.99276 0.48905 2.63977
upperneck 3.95246 0.392102 0.661349
head 2.28092 0.253418 -0.228347
rclavicle -1.77524e-014 8.69683e-015
rhumerus -34.0217 -8.29507 -84.0115
rradius 26.7121
rwrist 3.37139
rhand -18.9846 -8.60153
rfingers 7.12502
rthumb 7.32005 -38.4549
lclavicle -1.77524e-014 8.69683e-015
lhumerus -35.8404 6.80595 83.5142
lradius 27.2346
lwrist 16.5407
lhand -16.8208 15.3723
lfingers 7.12502
lthumb 9.40822 45.1423
rfemur -14.6063 4.83661 28.141
rtibia 30.361
rfoot -16.8424 -10.1988
rtoes 7.86266
lfemur -1.07142 6.51354 -12.0895
ltibia 60.3867
lfoot 10.1714 2.51919
ltoes -4.86985
498
root 15.6796 16.8587 -5.84619 75.2733 -87.0639 -78.3238
lowerback -0.589806 -1.73324 3.63114
upperback 1.32871 -2.3798 0.377872
thorax 1.5633 -1.1502 -1.68844
lowerneck -5.94847 0.42366 2.62511
upperneck 3.92946 0.304925 0.710258
head 2.26398 0.210712 -0.213595
rclavicle -1.99557e-014 -2.93207e-015
rhumerus -33.9412 -8.10264 -84.1196
rradius 26.9876
rwrist 3.21419
rhand -18.8772 -8.77982
rfingers 7.12502
rthumb 7.42369 -38.6296
lclavicle -1.99557e-014 -2.93207e-015
lhumerus -35.7937 6.70634 83.6139
lradius 27.4809
lwrist 16.7283
lhand -16.795 15.2438
lfingers 7.12502
lthumb 9.43317 45.0127
rfemur -13.8817 4.63224 28.4675
rtibia 30.1162
rfoot -16.8525 -10.1439
rtoes 8.0384
lfemur -2.4841 6.12107 -12.0081
ltibia 61.6171
lfoot 8.5851 2.30164
ltoes -6.02844
499
root 15.5474 16.8636 -5.86175 75.6857 -86.8603 -78.8205
lowerback -0.496442 -1.66828 3.84375
upperback 1.37333 -2.29511 0.429019
thorax 1.55573 -1.10571 -1.75121
lowerneck -5.89687 0.358217 2.61265
upperneck 3.9136 0.217281 0.765054
head 2.24812 0.167999 -0.197336
rclavicle 2.42983e-014 -3.13086e-015
rhumerus -33.8523 -7.91515 -84.2257
rradius 27.2394
rwrist 3.06833
rhand -18.7802 -8.91901
rfingers 7.12502
rthumb 7.51728 -38.7654
lclavicle 2.42983e-014 -3.13086e-015
lhumerus -35.7514 6.58534 83.7128
lradius 27.7388
lwrist 16.9177
lhand -16.7177 15.1145
lfingers 7.12502
lthumb 9.50775 44.88
rfemur -13.1672 4.45159 28.8062
rtibia 29.8921
rfoot -16.8673 -10.0847
rtoes 8.38498
lfemur -3.85175 5.73909 -11.9181
ltibia 62.6852
lfoot 6.92533 2.13974
ltoes -7.10969
500
root 15.4164 16.8667 -5.87727 76.3202 -86.6624 -79.5379
lowerback -0.403146 -1.60192 4.04528
upperback 1.41597 -2.20806 0.480352
thorax 1.54722 -1.06019 -1.8077
lowerneck -5.84685 0.297348 2.59796
upperneck 3.90677 0.135312 0.8271
head 2.23567 0.12836 -0.178157
rclavicle 1.99511e-014 1.04362e-015
rhumerus -33.7456 -7.73268 -84.3306
rradius 27.4615
rwrist 2.93715
rhand -18.6972 -9.00747
rfingers 7.12502
rthumb 7.59738 -38.851
lclavicle 1.99511e-014 1.04362e-015
lhumerus -35.7108 6.45347 83.809
lradius 28.0056
lwrist 17.0997
lhand -16.6081 14.9897
lfingers 7.12502
lthumb 9.61348 44.7504
rfemur -12.4839 4.29625 29.1434
rtibia 29.7
rfoot -16.8512 -10.0654
rtoes 8.67378
lfemur -5.17694 5.37048 -11.837
ltibia 63.592
lfoot 5.20097 2.05852
ltoes -8.19689
501
root 15.2866 16.8668 -5.89256 77.1721 -86.4766 -80.4709
lowerback -0.306965 -1.53385 4.23214
upperback 1.454 -2.11787 0.529464
thorax 1.53342 -1.01342 -1.85824
lowerneck -5.80036 0.241313 2.57811
upperneck 3.91431 0.059384 0.897377
head 2.22874 0.0920332 -0.155249
rclavicle -7.65748e-015 7.85199e-015
rhumerus -33.6285 -7.55717 -84.4339
rradius 27.6596
rwrist 2.81991
rhand -18.6356 -9.03893
rfingers 7.12502
rthumb 7.6569 -38.8803
lclavicle -7.65748e-015 7.85199e-015
lhumerus -35.6772 6.3089 83.9015
lradius 28.2807
lwrist 17.2756
lhand -16.4815 14.8538
lfingers 7.12502
lthumb 9.73564 44.6088
rfemur -11.8307 4.16357 29.4738
rtibia 29.5509
rfoot -16.8463 -10.0504
rtoes 9.01669
lfemur -6.46382 5.02093 -11.7714
ltibia 64.3485
lfoot 3.49501 2.07577
ltoes -9.10706
502
root 15.1579 16.8643 -5.90771 78.2596 -86.3098 -81.6364
lowerback -0.213232 -1.46291 4.39725
upperback 1.48928 -2.02321 0.57425
thorax 1.51946 -0.964674 -1.90124
lowerneck -5.76034 0.191674 2.55497
upperneck 3.93963 -0.0086231 0.973458
head 2.22903 0.0599787 -0.129644
rclavicle 2.35657e-014 -6.41081e-015
rhumerus -33.498 -7.38868 -84.5383
rradius 27.8325
rwrist 2.71253
rhand -18.6007 -9.04408
rfingers 7.12502
rthumb 7.6906 -38.8842
lclavicle 2.35657e-014 -6.41081e-015
lhumerus -35.6512 6.14795 83.991
lradius 28.5665
lwrist 17.4491
lhand -16.366 14.7176
lfingers 7.12502
lthumb 9.84704 44.4673
rfemur -11.2133 4.05109 29.7921
rtibia 29.452
rfoot -16.8719 -10.0446
rtoes 9.31457
lfemur -7.71414 4.69488 -11.7274
ltibia 64.9589
lfoot 1.88492 2.19524
ltoes -9.7593
503
root 15.0302 16.8594 -5.9225 79.4941 -86.1738 -82.9425
lowerback -0.120352 -1.39019 4.53312
upperback 1.51923 -1.92513 0.608906
thorax 1.50165 -0.914601 -1.93841
lowerneck -5.73064 0.148536 2.53098
upperneck 3.98359 -0.0686932 1.05086
head 2.23754 0.0321575 -0.103197
rclavicle -2.59507e-015 -1.4561e-014
rhumerus -33.36 -7.23345 -84.6443
rradius 27.9874
rwrist 2.61378
rhand -18.5874 -9.02679
rfingers 7.12502
rthumb 7.7034 -38.8665
lclavicle -2.59507e-015 -1.4561e-014
lhumerus -35.6354 5.97577 84.0719
lradius 28.8601
lwrist 17.6116
lhand -16.273 14.5761
lfingers 7.12502
lthumb 9.93683 44.3216
rfemur -10.6326 3.97028 30.0839
rtibia 29.4032
rfoot -16.9481 -10.0545
rtoes 9.53518
lfemur -8.93115 4.3831 -11.7215
ltibia 65.4275
lfoot 0.403208 2.41651
ltoes -10.1197
504
root 14.9035 16.8526 -5.93678 80.8153 -86.0708 -84.328
lowerback -0.0323623 -1.31627 4.63958
upperback 1.54707 -1.82477 0.63077
thorax 1.48533 -0.863593 -1.97257
lowerneck -5.72262 0.111478 2.51121
upperneck 4.04879 -0.121983 1.12481
head 2.25721 0.00803511 -0.0783369
rclavicle -2.35016e-014 9.34288e-015
rhumerus -33.2154 -7.09525 -84.7547
rradius 28.1306
rwrist 2.51418
rhand -18.6013 -8.98367
rfingers 7.12502
rthumb 7.68998 -38.8238
lclavicle -2.35016e-014 9.34288e-015
lhumerus -35.624 5.78716 84.1448
lradius 29.1623
lwrist 17.7696
lhand -16.2124 14.4383
lfingers 7.12502
lthumb 9.99527 44.1809
rfemur -10.0874 3.91571 30.3442
rtibia 29.4031
rfoot -17.0893 -10.082
rtoes 9.62377
lfemur -10.1171 4.0828 -11.7586
ltibia 65.7585
lfoot -0.937055 2.72076
ltoes -10.277
505
root 14.7774 16.8446 -5.95043 82.1896 -85.9898 -85.7578
lowerback 0.0517061 -1.24298 4.73111
upperback 1.57151 -1.72471 0.641356
thorax 1.46802 -0.812838 -2.01022
lowerneck -5.73455 0.0825851 2.50182
upperneck 4.12721 -0.165702 1.18968
head 2.2851 -0.0111431 -0.057806
rclavicle -1.21767e-014 -4.47266e-015
rhumerus -33.0661 -6.97098 -84.8694
rradius 28.2682
rwrist 2.4143
rhand -18.6299 -8.93212
rfingers 7.12502
rthumb 7.66241 -38.7733
lclavicle -1.21767e-014 -4.47266e-015
lhumerus -35.6189 5.58852 84.2054
lradius 29.4703
lwrist 17.9151
lhand -16.1763 14.3025
lfingers 7.12502
lthumb 10.0301 44.0435
rfemur -9.57502 3.89227 30.5826
rtibia 29.4476
rfoot -17.2965 -10.1351
rtoes 9.55356
lfemur -11.2741 3.78849 -11.8269
ltibia 65.9567
lfoot -2.14403 3.0881
ltoes -10.3024
506
root 14.6519 16.8352 -5.96322 83.5249 -85.9253 -87.1415
lowerback 0.130344 -1.17273 4.81494
upperback 1.59449 -1.62848 0.642267
thorax 1.45219 -0.763958 -2.05384
lowerneck -5.76424 0.0614097 2.50053
upperneck 4.21204 -0.199955 1.24384
head 2.31853 -0.0255824 -0.0417227
rclavicle 1.00103e-014 -1.42131e-014
rhumerus -32.918 -6.85522 -84.9899
rradius 28.4097
rwrist 2.30025
rhand -18.6714 -8.87599
rfingers 7.12502
rthumb 7.62236 -38.7186
lclavicle 1.00103e-014 -1.42131e-014
lhumerus -35.6142 5.38459 84.2544
lradius 29.7755
lwrist 18.0492
lhand -16.1618 14.1725
lfingers 7.12502
lthumb 10.0441 43.9128
rfemur -9.08614 3.8917 30.7998
rtibia 29.5312
rfoot -17.5641 -10.1909
rtoes 9.40078
lfemur -12.4033 3.48842 -11.9242
ltibia 66.0299
lfoot -3.31897 3.51877
ltoes -10.6096
507
root 14.5269 16.8243 -5.975 84.7321 -85.8664 -88.3899
lowerback 0.205731 -1.10774 4.90329
upperback 1.61253 -1.539 0.636665
thorax 1.43261 -0.718458 -2.10688
lowerneck -5.79765 0.045812 2.50467
upperneck 4.29423 -0.226674 1.28659
head 2.35188 -0.0364778 -0.029911
rclavicle 3.07417e-015 -3.57812e-015
rhumerus -32.7831 -6.74198 -85.1149
rradius 28.5646
rwrist 2.16864
rhand -18.7188 -8.82997
rfingers 7.12502
rthumb 7.57659 -38.6743
lclavicle 3.07417e-015 -3.57812e-015
lhumerus -35.6152 5.18064 84.2905
lradius 30.0744
lwrist 18.1727
lhand -16.1552 14.044
lfingers 7.12502
lthumb 10.0504 43.784
rfemur -8.61573 3.90176 31.0031
rtibia 29.6449
rfoot -17.8941 -10.2271
rtoes 9.30616
lfemur -13.5086 3.17465 -12.0388
ltibia 65.9898
lfoot -4.40371 3.99206
ltoes -10.9006
508
root 14.4022 16.8123 -5.98592 85.7563 -85.8069 -89.4459
lowerback 0.275776 -1.04992 4.99962
upperback 1.62595 -1.45905 0.628255
thorax 1.41062 -0.677695 -2.16754
lowerneck -5.83105 0.0351606 2.51058
upperneck 4.36978 -0.246233 1.31924
head 2.38312 -0.0441111 -0.0213378
rclavicle -1.79566e-015 1.40143e-014
rhumerus -32.6595 -6.62625 -85.243
rradius 28.735
rwrist 2.0319
rhand -18.7515 -8.80961
rfingers 7.12502
rthumb 7.54501 -38.655
lclavicle -1.79566e-015 1.40143e-014
lhumerus -35.6217 4.97771 84.316
lradius 30.3672
lwrist 18.288
lhand -16.1614 13.9286
lfingers 7.12502
lthumb 10.0445 43.6688
rfemur -8.16291 3.91848 31.1972
rtibia 29.7798
rfoot -18.2607 -10.2493
rtoes 9.21037
lfemur -14.5977 2.84394 -12.1619
ltibia 65.8464
lfoot -5.42364 4.4939
ltoes -11.2553
